<?xml version="1.0" standalone="no"?>
<!DOCTYPE svg PUBLIC "-//W3C//DTD SVG 20010904//EN"
 "http://www.w3.org/TR/2001/REC-SVG-20010904/DTD/svg10.dtd">
<svg version="1.0" xmlns="http://www.w3.org/2000/svg"
 width="256.000000pt" height="256.000000pt" viewBox="0 0 256.000000 256.000000"
 preserveAspectRatio="xMidYMid meet">
<metadata>
Created by potrace 1.14, written by Peter Selinger 2001-2017
</metadata>
<g transform="translate(0.000000,256.000000) scale(0.100000,-0.100000)"
fill="#000000" stroke="none">
<path d="M512 2272 c-12 -2 -30 -15 -39 -28 -9 -14 -40 -118 -69 -232 -29
-114 -66 -259 -83 -322 -16 -63 -46 -178 -66 -255 -20 -77 -38 -147 -40 -155
-2 -8 -26 -100 -53 -205 -27 -104 -57 -215 -65 -245 -9 -30 -18 -66 -21 -80
-6 -32 -9 -41 -46 -180 -33 -124 -32 -162 3 -184 30 -19 327 -96 370 -96 58 0
57 -2 144 330 19 74 37 143 39 153 2 10 6 28 10 39 6 20 6 20 28 -1 16 -15 36
-21 72 -22 47 -1 47 -1 17 -10 -37 -11 -90 -61 -105 -98 -12 -32 -12 -240 1
-272 13 -35 56 -78 93 -94 28 -12 178 -14 892 -15 l858 0 45 47 c25 25 48 56
53 68 5 12 9 77 9 144 l1 122 -54 54 -54 55 31 0 c70 0 77 23 77 239 0 99 -4
191 -10 205 -11 31 -52 43 -134 40 l-59 -3 51 24 c97 45 145 119 145 225 1 47
-5 76 -21 106 -28 55 -92 109 -147 124 -32 9 -232 12 -789 13 -530 0 -746 3
-746 11 0 6 19 85 42 176 54 212 52 219 -60 249 -204 55 -299 76 -320 73z"/>
</g>
</svg>
